<?xml version="1.0" encoding="UTF-8" standalone="no"?>
<!-- Generator: Adobe Illustrator 16.0.0, SVG Export Plug-In . SVG Version: 6.00 Build 0)  -->

<svg
   xmlns:dc="http://purl.org/dc/elements/1.1/"
   xmlns:cc="http://creativecommons.org/ns#"
   xmlns:rdf="http://www.w3.org/1999/02/22-rdf-syntax-ns#"
   xmlns:svg="http://www.w3.org/2000/svg"
   xmlns="http://www.w3.org/2000/svg"
   xmlns:xlink="http://www.w3.org/1999/xlink"
   xmlns:sodipodi="http://sodipodi.sourceforge.net/DTD/sodipodi-0.dtd"
   xmlns:inkscape="http://www.inkscape.org/namespaces/inkscape"
   version="1.1"
   id="Capa_1"
   x="0px"
   y="0px"
   width="100"
   height="100"
   viewBox="0 0 99.999997 99.999997"
   xml:space="preserve"
   inkscape:version="0.48.4 r9939"
   sodipodi:docname="inlinesave.svg"
   inkscape:export-filename="/home/tyleryasaka/projects/inlinesave/icons/inlinesave.png"
   inkscape:export-xdpi="2.9174097"
   inkscape:export-ydpi="2.9174097"><metadata
     id="metadata51"><rdf:RDF><cc:Work
         rdf:about=""><dc:format>image/svg+xml</dc:format><dc:type
           rdf:resource="http://purl.org/dc/dcmitype/StillImage" /><dc:title /></cc:Work></rdf:RDF></metadata><defs
     id="defs49"><linearGradient
       id="linearGradient3796"><stop
         style="stop-color:#3ea128;stop-opacity:0.94117647;"
         offset="0"
         id="stop3798" /><stop
         style="stop-color:#3ea128;stop-opacity:0.94117647;"
         offset="1"
         id="stop3800" /></linearGradient><linearGradient
       inkscape:collect="always"
       xlink:href="#linearGradient3796"
       id="linearGradient3802"
       x1="327.01248"
       y1="64.160774"
       x2="55.87952"
       y2="459.47089"
       gradientUnits="userSpaceOnUse" /><linearGradient
       inkscape:collect="always"
       xlink:href="#linearGradient3796"
       id="linearGradient3888"
       gradientUnits="userSpaceOnUse"
       x1="327.01248"
       y1="64.160774"
       x2="55.87952"
       y2="459.47089" /><linearGradient
       inkscape:collect="always"
       xlink:href="#linearGradient3796"
       id="linearGradient3890"
       gradientUnits="userSpaceOnUse"
       x1="327.01248"
       y1="64.160774"
       x2="55.87952"
       y2="459.47089" /><linearGradient
       inkscape:collect="always"
       xlink:href="#linearGradient3796"
       id="linearGradient3892"
       gradientUnits="userSpaceOnUse"
       x1="327.01248"
       y1="64.160774"
       x2="55.87952"
       y2="459.47089" /><linearGradient
       inkscape:collect="always"
       xlink:href="#linearGradient3796"
       id="linearGradient3894"
       gradientUnits="userSpaceOnUse"
       x1="327.01248"
       y1="64.160774"
       x2="55.87952"
       y2="459.47089" /><linearGradient
       inkscape:collect="always"
       xlink:href="#linearGradient3796"
       id="linearGradient3896"
       gradientUnits="userSpaceOnUse"
       x1="327.01248"
       y1="64.160774"
       x2="55.87952"
       y2="459.47089" /></defs><sodipodi:namedview
     pagecolor="#ffffff"
     bordercolor="#666666"
     borderopacity="1"
     objecttolerance="10"
     gridtolerance="10"
     guidetolerance="10"
     inkscape:pageopacity="0"
     inkscape:pageshadow="2"
     inkscape:window-width="1237"
     inkscape:window-height="1000"
     id="namedview47"
     showgrid="false"
     inkscape:zoom="3.8653197"
     inkscape:cx="8.4523292"
     inkscape:cy="29.613804"
     inkscape:window-x="1963"
     inkscape:window-y="24"
     inkscape:window-maximized="1"
     inkscape:current-layer="g3"
     fit-margin-top="0"
     fit-margin-left="0"
     fit-margin-right="0"
     fit-margin-bottom="0" /><g
     id="g3"
     transform="translate(-0.002,-388.447)"><g
       id="g5"
       style="fill:url(#linearGradient3802);fill-opacity:1"
       transform="matrix(0.20473259,0,0,0.2047305,0.00159053,388.447)"><g
         id="g7"
         style="fill:url(#linearGradient3896);fill-opacity:1"><path
           d="m 153.029,90.223 h 182.404 c 5.427,0 9.873,-4.43 9.873,-9.869 V 0 H 143.137 v 80.354 c 0,5.439 4.434,9.869 9.892,9.869 z"
           id="path9"
           style="fill:url(#linearGradient3888);fill-opacity:1"
           inkscape:connector-curvature="0" /><path
           d="M 480.817,122.864 377.88,19.494 v 60.859 c 0,23.404 -19.043,42.447 -42.447,42.447 H 153.029 c -23.409,0 -42.447,-19.043 -42.447,-42.447 V 0 H 44.823 C 20.068,0 0.002,20.07 0.002,44.808 v 398.831 c 0,24.736 20.066,44.808 44.821,44.808 h 398.813 c 24.74,0 44.808,-20.068 44.808,-44.808 V 141.325 c 0,-6.933 -2.746,-13.567 -7.627,-18.461 z m -68.356,262.802 c 0,14.434 -11.703,26.154 -26.168,26.154 H 102.137 c -14.451,0 -26.153,-11.722 -26.153,-26.154 V 249.303 c 0,-14.43 11.702,-26.148 26.153,-26.148 h 284.156 c 14.465,0 26.168,11.72 26.168,26.148 v 136.363 z"
           id="path11"
           style="fill:url(#linearGradient3890);fill-opacity:1"
           inkscape:connector-curvature="0" /><path
           d="M 356.497,265.131 H 131.949 c -9.008,0 -16.294,7.273 -16.294,16.28 0,9.007 7.286,16.28 16.294,16.28 h 224.549 c 8.988,0 16.277,-7.273 16.277,-16.28 0,-9.007 -7.288,-16.28 -16.278,-16.28 z"
           id="path13"
           style="fill:url(#linearGradient3892);fill-opacity:1"
           inkscape:connector-curvature="0" /><path
           d="M 323.936,330.264 H 164.508 c -8.994,0 -16.28,7.273 -16.28,16.28 0,8.989 7.286,16.28 16.28,16.28 h 159.427 c 8.994,0 16.281,-7.291 16.281,-16.28 10e-4,-9.007 -7.286,-16.28 -16.28,-16.28 z"
           id="path15"
           style="fill:url(#linearGradient3894);fill-opacity:1"
           inkscape:connector-curvature="0" /></g></g></g><g
     id="g17"
     transform="translate(-0.002,-388.447)" /><g
     id="g19"
     transform="translate(-0.002,-388.447)" /><g
     id="g21"
     transform="translate(-0.002,-388.447)" /><g
     id="g23"
     transform="translate(-0.002,-388.447)" /><g
     id="g25"
     transform="translate(-0.002,-388.447)" /><g
     id="g27"
     transform="translate(-0.002,-388.447)" /><g
     id="g29"
     transform="translate(-0.002,-388.447)" /><g
     id="g31"
     transform="translate(-0.002,-388.447)" /><g
     id="g33"
     transform="translate(-0.002,-388.447)" /><g
     id="g35"
     transform="translate(-0.002,-388.447)" /><g
     id="g37"
     transform="translate(-0.002,-388.447)" /><g
     id="g39"
     transform="translate(-0.002,-388.447)" /><g
     id="g41"
     transform="translate(-0.002,-388.447)" /><g
     id="g43"
     transform="translate(-0.002,-388.447)" /><g
     id="g45"
     transform="translate(-0.002,-388.447)" /></svg>